LG_Sit_Stand_Walk01																		
version=1																		
nRows=79																		
nColumns=19																		
inDegrees=yes																		
endheader																		
time	ground_force2_vx	ground_force2_vy	ground_force2_vz	ground_force2_px	ground_force2_py	ground_force2_pz	ground_torque2_x	ground_torque2_y	ground_torque2_z	ground_force1_vx	ground_force1_vy	ground_force1_vz	ground_force1_px	ground_force1_py	ground_force1_pz	ground_torque1_x	ground_torque1_y	ground_torque1_z
4.33	-22.90988	610.043823	33.308823	0.191726	0	-0.366385	1.70E-05	-1.089901	1.00E-05	0	0	0	-0.13	0	0.305	0	0	0
4.331	-22.90988	611.080688	33.308823	0.191726	0	-0.366283	9.00E-06	-1.035561	8.00E-06	0	0	0	-0.13	0	0.305	0	0	0
4.332	-22.599197	611.405457	33.622307	0.191549	0	-0.366283	1.60E-05	-0.98777	8.00E-06	0	0	0	-0.13	0	0.305	0	0	0
4.333	-22.599197	613.647644	33.857338	0.191542	0	-0.366283	6.00E-06	-0.98777	8.00E-06	0	0	0	-0.13	0	0.305	0	0	0
4.334	-22.599197	613.64917	34.013878	0.191542	0	-0.365964	1.60E-05	-1.000411	4.00E-06	0	0	0	-0.13	0	0.305	0	0	0
4.335	-22.599197	614.345093	34.013878	0.191542	0	-0.365529	1.70E-05	-1.085258	4.00E-06	0	0	0	-0.13	0	0.305	0	0	0
4.336	-22.444218	614.845703	33.935745	0.191485	0	-0.365529	1.70E-05	-1.085258	8.00E-06	0	0	0	-0.13	0	0.305	0	0	0
4.337	-22.444218	614.845703	33.935745	0.191485	0	-0.366043	1.30E-05	-1.085258	8.00E-06	0	0	0	-0.13	0	0.305	0	0	0
4.338	-22.288515	614.845703	33.778847	0.191485	0	-0.366084	9.00E-06	-0.989886	6.00E-06	0	0	0	-0.13	0	0.305	0	0	0
4.339	-22.916374	616.751221	34.092331	0.191357	0	-0.366245	8.00E-06	-0.989886	5.00E-06	0	0	0	-0.13	0	0.305	0	0	0
4.34	-22.053518	618.45874	33.935909	0.191588	0	-0.366219	9.00E-06	-0.989886	6.00E-06	0	0	0	-0.13	0	0.305	0	0	0
4.341	-22.128485	621.052368	34.092407	0.191588	0	-0.366219	1.30E-05	-1.206086	5.00E-06	0	0	0	-0.13	0	0.305	0	0	0
4.342	-22.128485	621.052368	34.092407	0.191726	0	-0.366219	1.50E-05	-1.206086	9.00E-06	0	0	0	-0.13	0	0.305	0	0	0
4.343	-22.128485	621.052368	34.249069	0.191783	0	-0.366305	1.30E-05	-1.206086	3.00E-06	0	0	0	-0.13	0	0.305	0	0	0
4.344	-21.895651	622.074158	34.406055	0.191783	0	-0.366305	1.50E-05	-1.180595	1.00E-06	0	0	0	-0.13	0	0.305	0	0	0
4.345	-21.895651	624.124268	34.562553	0.191783	0	-0.366443	1.60E-05	-1.180595	0.00E+00	0	0	0	-0.13	0	0.305	0	0	0
4.346	-21.972782	624.124268	34.562553	0.191437	0	-0.366549	1.90E-05	-1.147879	0	0	0	0	-0.13	0	0.305	0	0	0
4.347	-22.050632	624.124268	34.719215	0.191332	0	-0.366549	1.60E-05	-1.12615	1.00E-06	0	0	0	-0.13	0	0.305	0	0	0
4.348	-21.972782	625.671021	35.110947	0.19124	0	-0.366549	1.10E-05	-1.12615	2.00E-06	0	0	0	-0.13	0	0.305	0	0	0
4.349	-21.894209	626.368408	35.267769	0.191332	0	-0.366273	9.00E-06	-1.146814	8.00E-06	0	0	0	-0.13	0	0.305	0	0	0
4.35	-21.894209	626.886414	35.737713	0.191505	0	-0.36663	9.00E-06	-1.171614	1.10E-05	0	0	0	-0.13	0	0.305	0	0	0
4.351	-21.73995	627.751221	35.737713	0.191505	0	-0.36663	5.00E-06	-1.146814	8.00E-06	0	0	0	-0.13	0	0.305	0	0	0
4.352	-21.73995	629.800171	36.443012	0.191534	0	-0.366681	1.60E-05	-1.171614	9.00E-06	0	0	0	-0.13	0	0.305	0	0	0
4.353	-21.660656	629.800171	36.443092	0.191534	0	-0.366751	1.40E-05	-1.200232	6.00E-06	0	0	0	-0.13	0	0.305	0	0	0
4.354	-21.579197	630.818054	36.756371	0.191534	0	-0.367314	1.40E-05	-1.233041	6.00E-06	0	0	0	-0.13	0	0.305	0	0	0
4.355	-21.18922	630.818054	37.148308	0.191161	0	-0.367314	6.00E-06	-1.279679	6.00E-06	0	0	0	-0.13	0	0.305	0	0	0
4.356	-21.18922	632.539185	37.304848	0.19104	0	-0.367707	6.00E-06	-1.302158	7.00E-06	0	0	0	-0.13	0	0.305	0	0	0
4.357	-21.267071	632.539185	37.618492	0.190853	0	-0.367782	0.00E+00	-1.302158	7.00E-06	0	0	0	-0.13	0	0.305	0	0	0
4.358	-21.267071	633.555115	38.166683	0.190853	0	-0.367782	0	-1.297707	1.00E-06	0	0	0	-0.13	0	0.305	0	0	0
4.359	-21.267071	635.990234	38.245132	0.190879	0	-0.367497	2.00E-06	-1.212384	1.00E-06	0	0	0	-0.13	0	0.305	0	0	0
4.36	-20.722837	636.667603	38.872021	0.191109	0	-0.366941	2.00E-06	-1.227459	0.00E+00	0	0	0	-0.13	0	0.305	0	0	0
4.361	-20.721394	637.1698	39.107094	0.191114	0	-0.366941	-4.00E-06	-1.227459	0	0	0	0	-0.13	0	0.305	0	0	0
4.362	-20.488562	640.282593	39.577076	0.191114	0	-0.366941	-4.00E-06	-1.239473	0.00E+00	0	0	0	-0.13	0	0.305	0	0	0
4.363	-20.482067	640.282593	40.047218	0.191038	0	-0.367224	5.00E-06	-1.293651	0.00E+00	0	0	0	-0.13	0	0.305	0	0	0
4.364	-20.328529	640.446838	40.830807	0.191038	0	-0.367377	5.00E-06	-1.408902	1.00E-06	0	0	0	-0.13	0	0.305	0	0	0
4.365	-20.328529	640.954041	41.222618	0.191038	0	-0.367419	1.00E-05	-1.349895	1.00E-06	0	0	0	-0.13	0	0.305	0	0	0
4.366	-20.328529	645.259888	41.222618	0.191277	0	-0.367876	1.70E-05	-1.408902	1.00E-06	0	0	0	-0.13	0	0.305	0	0	0
4.367	-20.09137	645.946045	41.379162	0.191067	0	-0.367885	2.00E-05	-1.391347	7.00E-06	0	0	0	-0.13	0	0.305	0	0	0
4.368	-20.014961	646.442871	42.006046	0.191067	0	-0.367946	2.00E-05	-1.441104	3.00E-06	0	0	0	-0.13	0	0.305	0	0	0
4.369	-19.622822	646.456055	42.868004	0.191067	0	-0.367885	2.00E-05	-1.467845	8.00E-06	0	0	0	-0.13	0	0.305	0	0	0
4.37	-19.622822	650.757202	43.024624	0.191177	0	-0.36789	8.00E-06	-1.467845	7.00E-06	0	0	0	-0.13	0	0.305	0	0	0
4.371	-19.857817	653.330322	43.573021	0.191177	0	-0.367514	5.00E-06	-1.405398	9.00E-06	0	0	0	-0.13	0	0.305	0	0	0
4.372	-19.857817	654.02002	44.278236	0.191177	0	-0.3676	2.00E-06	-1.405398	7.00E-06	0	0	0	-0.13	0	0.305	0	0	0
4.373	-19.469284	657.10968	44.983532	0.191003	0	-0.3676	2.00E-06	-1.410783	-1.00E-06	0	0	0	-0.13	0	0.305	0	0	0
4.374	-19.387825	657.272827	45.531845	0.191197	0	-0.367713	1.00E-05	-1.484884	-1.00E-06	0	0	0	-0.13	0	0.305	0	0	0
4.375	-19.387825	657.459839	45.845249	0.191269	0	-0.367713	1.60E-05	-1.484884	9.00E-06	0	0	0	-0.13	0	0.305	0	0	0
4.376	-19.545691	659.52887	46.001991	0.191321	0	-0.367713	2.00E-05	-1.475666	9.00E-06	0	0	0	-0.13	0	0.305	0	0	0
4.377	-19.697784	660.718018	46.472294	0.191348	0	-0.368383	1.60E-05	-1.475666	3.00E-06	0	0	0	-0.13	0	0.305	0	0	0
4.378	-19.697784	662.086975	46.942402	0.191361	0	-0.368383	1.50E-05	-1.608501	3.00E-06	0	0	0	-0.13	0	0.305	0	0	0
4.379	-19.619934	665.366028	47.334011	0.191361	0	-0.36839	1.50E-05	-1.612417	3.00E-06	0	0	0	-0.13	0	0.305	0	0	0
4.38	-19.384939	665.537598	48.039146	0.191361	0	-0.368301	6.00E-06	-1.608501	-2.00E-06	0	0	0	-0.13	0	0.305	0	0	0
4.381	-19.384939	666.733032	48.431038	0.191273	0	-0.368381	1.50E-05	-1.612417	-2.00E-06	0	0	0	-0.13	0	0.305	0	0	0
4.382	-19.460625	671.012573	48.901104	0.191049	0	-0.368381	-2.00E-06	-1.633712	4.00E-06	0	0	0	-0.13	0	0.305	0	0	0
4.383	-19.460625	671.012573	48.979515	0.19099	0	-0.3691	1.40E-05	-1.687195	5.00E-06	0	0	0	-0.13	0	0.305	0	0	0
4.384	-19.460625	671.012573	49.214428	0.190904	0	-0.3691	1.40E-05	-1.687195	4.00E-06	0	0	0	-0.13	0	0.305	0	0	0
4.385	-19.541363	673.577637	50.468197	0.190904	0	-0.3691	1.40E-05	-1.616498	5.00E-06	0	0	0	-0.13	0	0.305	0	0	0
4.386	-19.541363	676.177368	50.624779	0.190904	0	-0.368717	1.60E-05	-1.616498	3.00E-06	0	0	0	-0.13	0	0.305	0	0	0
4.387	-19.616327	676.177368	51.251465	0.19098	0	-0.36864	1.20E-05	-1.628797	3.00E-06	0	0	0	-0.13	0	0.305	0	0	0
4.388	-19.382774	678.409912	51.565067	0.191128	0	-0.36864	1.20E-05	-1.73178	3.00E-06	0	0	0	-0.13	0	0.305	0	0	0
4.389	-19.149221	679.795105	52.113544	0.191144	0	-0.368802	5.00E-06	-1.764018	2.00E-06	0	0	0	-0.13	0	0.305	0	0	0
4.39	-19.149221	681.160522	52.191952	0.191144	0	-0.368931	4.00E-06	-1.850499	3.00E-06	0	0	0	-0.13	0	0.305	0	0	0
4.391	-19.379887	682.013367	52.975338	0.191038	0	-0.369062	5.00E-06	-1.856872	3.00E-06	0	0	0	-0.13	0	0.305	0	0	0
4.392	-19.459183	683.738281	53.210529	0.191038	0	-0.369062	3.00E-06	-1.856872	3.00E-06	0	0	0	-0.13	0	0.305	0	0	0
4.393	-19.379887	685.113403	53.288902	0.191062	0	-0.369423	1.20E-05	-1.856872	3.00E-06	0	0	0	-0.13	0	0.305	0	0	0
4.394	-19.459183	686.475769	53.445602	0.191062	0	-0.36948	-1.00E-06	-1.870153	1.00E-05	0	0	0	-0.13	0	0.305	0	0	0
4.395	-19.612719	687.338257	54.30732	0.190834	0	-0.36948	1.00E-05	-1.874159	1.00E-05	0	0	0	-0.13	0	0.305	0	0	0
4.396	-19.690571	691.648376	54.4641	0.190834	0	-0.36948	7.00E-06	-1.870153	1.00E-05	0	0	0	-0.13	0	0.305	0	0	0
4.397	-20.085598	692.677429	54.542553	0.190854	0	-0.369024	1.00E-05	-1.805045	9.00E-06	0	0	0	-0.13	0	0.305	0	0	0
4.398	-20.395559	693.357422	54.855957	0.190951	0	-0.369024	1.30E-05	-1.805045	7.00E-06	0	0	0	-0.13	0	0.305	0	0	0
4.399	-20.395559	695.246338	55.247612	0.190854	0	-0.369024	1.30E-05	-1.8261	6.00E-06	0	0	0	-0.13	0	0.305	0	0	0
4.4	-20.395559	695.95343	55.71767	0.190759	0	-0.369127	1.50E-05	-1.830491	5.00E-06	0	0	0	-0.13	0	0.305	0	0	0
4.401	-20.474131	696.965149	55.717834	0.190759	0	-0.369449	8.00E-06	-1.967815	5.00E-06	0	0	0	-0.13	0	0.305	0	0	0
4.402	-20.783369	698.508728	56.423008	0.191058	0	-0.369148	2.30E-05	-1.967815	5.00E-06	0	0	0	-0.13	0	0.305	0	0	0
4.403	-21.406176	701.443359	56.501259	0.191152	0	-0.369223	6.00E-06	-1.978015	4.00E-06	0	0	0	-0.13	0	0.305	0	0	0
4.404	-21.561878	704.376404	56.579548	0.191322	0	-0.369223	1.40E-05	-2.011189	4.00E-06	0	0	0	-0.13	0	0.305	0	0	0
4.405	-21.952578	704.540283	56.579548	0.191322	0	-0.369644	4.00E-06	-2.011189	0.00E+00	0	0	0	-0.13	0	0.305	0	0	0
4.406	-22.262537	704.874695	57.441429	0.191049	0	-0.369644	1.40E-05	-2.011189	4.00E-06	0	0	0	-0.13	0	0.305	0	0	0
4.407	-22.34544	705.226501	57.519718	0.190924	0	-0.369409	1.50E-05	-2.011521	4.00E-06	0	0	0	-0.13	0	0.305	0	0	0
4.408	-22.574663	710.038391	57.9897	0.190924	0	-0.369409	1.50E-05	-2.011521	8.00E-06	0	0	0	-0.13	0	0.305	0	0	0
